{"title":"A Fish Called Wanda {720p}{5.1}{AAC}{PcTechPaul}","uid":9238513,"size":1107117518,"categoryP":"video","categoryS":"hd___movies","magnet":"?xt=urn:btih:aa6585b816c86287dbce606a58c69799759d023a&amp;dn=A+Fish+Called+Wanda+%7B720p%7D%7B5.1%7D%7BAAC%7D%7BPcTechPaul%7D&amp;tr=udp%3A%2F%2Ftracker.openbittorrent.com%3A80&amp;tr=udp%3A%2F%2Fopen.demonii.com%3A1337&amp;tr=udp%3A%2F%2Ftracker.coppersurfer.tk%3A6969&amp;tr=udp%3A%2F%2Fexodus.desync.com%3A6969","seeders":3,"leechers":1,"uploader":"PCTECHPAUL","files":6,"time":1385226614,"description":"omplete name : A Fish Called Wanda.mp4\nFormat : MPEG-4\nFormat profile : Base Media / Version 2\nCodec ID : mp42\nFile size : 1.03 GiB\nDuration : 1h 47mn\nOverall bit rate mode : Variable\nOverall bit rate : 1 361 Kbps\nEncoded date : UTC 2013-11-15 12:15:00\nTagged date : UTC 2013-11-15 13:02:29\n\nIMDB Link :http://www.imdb.com/title/tt0095159\nIMDB Rating :7.7 / 10\n\nAdditional Information : The film will seem like it may be a bad video quality but that is the actual source of the film, for whaterver reason you will see some artifacts I believe they didn't have a better master\nTo convert to Blu-Ray, but I assure it's still pretty good quality and this is a must have for your collection. It's one of the best all time comedies ever made.\n\n\nVideo\nID : 1\nFormat : AVC\nFormat/Info : Advanced Video Codec\nFormat profile : &lt;a class=&quot;__cf_email__&quot; href=&quot;/cdn-cgi/l/email-protection&quot; data-cfemail=&quot;1058797778505c243e20&quot;&gt;[email&amp;#160;protected]&lt;/a&gt;&lt;script cf-hash='f9e31' type=&quot;text/javascript&quot;&gt;\n/* &lt;![CDATA[ */!function(){try{var t=&quot;currentScript&quot;in document?document.currentScript:function(){for(var t=document.getElementsByTagName(&quot;script&quot;),e=t.length;e--;)if(t[e].getAttribute(&quot;cf-hash&quot;))return t[e]}();if(t&amp;&amp;t.previousSibling){var e,r,n,i,c=t.previousSibling,a=c.getAttribute(&quot;data-cfemail&quot;);if(a){for(e=&quot;&quot;,r=parseInt(a.substr(0,2),16),n=2;a.length-n;n+=2)i=parseInt(a.substr(n,2),16)^r,e+=String.fromCharCode(i);e=document.createTextNode(e),c.parentNode.replaceChild(e,c)}}}catch(u){}}();/* ]]&gt; */&lt;/script&gt;\nFormat settings, CABAC : Yes\nFormat settings, ReFrames : 6 frames\nCodec ID : avc1\nCodec ID/Info : Advanced Video Coding\nDuration : 1h 47mn\nBit rate mode : Variable\nBit rate : 972 Kbps\nWidth : 1 280 pixels\nHeight : 688 pixels\nDisplay aspect ratio : 1.85:1\nFrame rate mode : Variable\nFrame rate : 23.976 fps\nMinimum frame rate : 23.974 fps\nMaximum frame rate : 23.981 fps\nColor space : YUV\nChroma subsampling : 4:2:0\nBit depth : 8 bits\nScan type : Progressive\nBits/(Pixel*Frame) : 0.046\nStream size : 750 MiB (71%)\nWriting library : x264 core 130 r2273 b3065e6\nEncoding settings : cabac=1 // deblock=1:0:0 / analyse=0x3:0x113 / me=hex / subme=7 / psy=1 / psy_rd=1.20:0.02 // me_range=16 / chroma_me=1 / trellis=1 / 8x8dct=1 / cqm=0 / deadzone=21,11 / fast_pskip=1 / chroma_qp_offset=-3 / threads=12 / lookahead_threads=2 / sliced_threads=0 / nr=0 / decimate=0 / interlaced=0 / bluray_compat=0 / constrained_intra=0 / bframes=6 / b_pyramid=2 / b_adapt=1 / b_bias=0 / direct=1 / weightb=1 / open_gop=0 / weightp=2 / keyint=240 / keyint_min=24 / scenecut=40 / intra_refresh=0 / rc_lookahead=40 / rc=2pass / mbtree=1 / bitrate=972 / ratetol=1.0 / qcomp=0.60 / qpmin=0 / qpmax=69 / qpstep=4 / cplxblur=20.0 / qblur=0.5 / ip_ratio=1.40 / aq=1:1.00\n\n\nColor primaries : BT.709\nTransfer characteristics : BT.709\nMatrix coefficients : BT.709\n\n\n\nAudio\nID : 2\nFormat : AAC\nFormat/Info : Advanced Audio Codec\nFormat profile : LC\nCodec ID : 40\nDuration : 1h 47mn\nBit rate mode : Variable\nBit rate : 384 Kbps\nMaximum bit rate : 714 Kbps\nChannel(s) : 6 channels\nChannel positions : Front: L C R, Side: L R, LFE\nSampling rate : 48.0 KHz\nCompression mode : Lossy\nDelay relative to video : 83ms\nStream size : 296 MiB (28%)\nLanguage : English\n\nThanks All Enjoy\nPcTechPaul","torrent":{"xt":"urn:btih:aa6585b816c86287dbce606a58c69799759d023a","amp;dn":"A+Fish+Called+Wanda+%7B720p%7D%7B5.1%7D%7BAAC%7D%7BPcTechPaul%7D","amp;tr":["udp%3A%2F%2Ftracker.openbittorrent.com%3A80","udp%3A%2F%2Fopen.demonii.com%3A1337","udp%3A%2F%2Ftracker.coppersurfer.tk%3A6969","udp%3A%2F%2Fexodus.desync.com%3A6969"],"infoHash":"aa6585b816c86287dbce606a58c69799759d023a","infoHashBuffer":{"type":"Buffer","data":[170,101,133,184,22,200,98,135,219,206,96,106,88,198,151,153,117,157,2,58]},"announce":[],"urlList":[]}}